solid OpenSCAD_Model
  facet normal -1 0 0
    outer loop
      vertex 0 0 0
      vertex 0 0 2
      vertex 0 40 0
    endloop
  endfacet
  facet normal -1 0 0
    outer loop
      vertex 0 40 0
      vertex 0 0 2
      vertex 0 40 2
    endloop
  endfacet
  facet normal 0 -1 0
    outer loop
      vertex 0 0 2
      vertex 0 0 0
      vertex 20 0 0
    endloop
  endfacet
  facet normal 0 -1 0
    outer loop
      vertex 2.5 0 2
      vertex 0 0 2
      vertex 20 0 0
    endloop
  endfacet
  facet normal 0 -1 0
    outer loop
      vertex 17.5 0 2
      vertex 2.5 0 2
      vertex 20 0 0
    endloop
  endfacet
  facet normal 0 -1 0
    outer loop
      vertex 20 0 2
      vertex 17.5 0 2
      vertex 20 0 0
    endloop
  endfacet
  facet normal 0 -1 0
    outer loop
      vertex 20 0 5
      vertex 20 0 7.5
      vertex 17.5 0 5
    endloop
  endfacet
  facet normal 0 -1 0
    outer loop
      vertex 20 0 7.5
      vertex 0 0 7.5
      vertex 0 0 5
    endloop
  endfacet
  facet normal 0 -1 0
    outer loop
      vertex 20 0 7.5
      vertex 0 0 5
      vertex 2.5 0 5
    endloop
  endfacet
  facet normal 0 -1 0
    outer loop
      vertex 17.5 0 5
      vertex 2.5 0 2
      vertex 17.5 0 2
    endloop
  endfacet
  facet normal 0 -1 0
    outer loop
      vertex 2.5 0 5
      vertex 17.5 0 5
      vertex 20 0 7.5
    endloop
  endfacet
  facet normal 0 -1 0
    outer loop
      vertex 2.5 0 5
      vertex 2.5 0 2
      vertex 17.5 0 5
    endloop
  endfacet
  facet normal 0 0 -1
    outer loop
      vertex 7.5 34 0
      vertex 0 40 0
      vertex 20 40 0
    endloop
  endfacet
  facet normal 0 0 -1
    outer loop
      vertex 0 0 0
      vertex 0 40 0
      vertex 1.2 10 0
    endloop
  endfacet
  facet normal 0 0 -1
    outer loop
      vertex 6.75 16.9689 0
      vertex 6.9 13.2909 0
      vertex 3.25 16.9689 0
    endloop
  endfacet
  facet normal 0 0 -1
    outer loop
      vertex 0 0 0
      vertex 1.2 10 0
      vertex 3.1 6.7091 0
    endloop
  endfacet
  facet normal 0 0 -1
    outer loop
      vertex 0 0 0
      vertex 3.1 6.7091 0
      vertex 20 0 0
    endloop
  endfacet
  facet normal 0 0 -1
    outer loop
      vertex 3.1 6.7091 0
      vertex 6.9 6.7091 0
      vertex 20 0 0
    endloop
  endfacet
  facet normal 0 0 -1
    outer loop
      vertex 14.3356 12.0448 0
      vertex 12.1684 17.9428 0
      vertex 15 12.15 0
    endloop
  endfacet
  facet normal 0 0 -1
    outer loop
      vertex 1.5 20 0
      vertex 0 40 0
      vertex 3.25 23.0311 0
    endloop
  endfacet
  facet normal 0 0 -1
    outer loop
      vertex 3.25 16.9689 0
      vertex 3.1 13.2909 0
      vertex 1.5 20 0
    endloop
  endfacet
  facet normal 0 0 -1
    outer loop
      vertex 1.2 10 0
      vertex 0 40 0
      vertex 1.5 20 0
    endloop
  endfacet
  facet normal 0 0 -1
    outer loop
      vertex 1.2 10 0
      vertex 1.5 20 0
      vertex 3.1 13.2909 0
    endloop
  endfacet
  facet normal 0 0 -1
    outer loop
      vertex 3.1 13.2909 0
      vertex 3.25 16.9689 0
      vertex 6.9 13.2909 0
    endloop
  endfacet
  facet normal 0 0 -1
    outer loop
      vertex 8.5 20 0
      vertex 8.8 10 0
      vertex 6.75 16.9689 0
    endloop
  endfacet
  facet normal 0 0 -1
    outer loop
      vertex 6.9 13.2909 0
      vertex 6.75 16.9689 0
      vertex 8.8 10 0
    endloop
  endfacet
  facet normal 0 0 -1
    outer loop
      vertex 6.75 23.0311 0
      vertex 0 40 0
      vertex 8.5 20 0
    endloop
  endfacet
  facet normal 0 0 -1
    outer loop
      vertex 3.25 23.0311 0
      vertex 0 40 0
      vertex 6.75 23.0311 0
    endloop
  endfacet
  facet normal 0 0 -1
    outer loop
      vertex 7.5 30 0
      vertex 0 40 0
      vertex 7.5 34 0
    endloop
  endfacet
  facet normal 0 0 -1
    outer loop
      vertex 12.5 34 0
      vertex 7.5 34 0
      vertex 20 40 0
    endloop
  endfacet
  facet normal 0 0 -1
    outer loop
      vertex 11.5 20 0
      vertex 0 40 0
      vertex 7.5 30 0
    endloop
  endfacet
  facet normal 0 0 -1
    outer loop
      vertex 11.5 20 0
      vertex 7.5 30 0
      vertex 11.6713 21.0816 0
    endloop
  endfacet
  facet normal 0 0 -1
    outer loop
      vertex 17.0572 22.8316 0
      vertex 12.5 30 0
      vertex 20 40 0
    endloop
  endfacet
  facet normal 0 0 -1
    outer loop
      vertex 12.5 30 0
      vertex 12.5 34 0
      vertex 20 40 0
    endloop
  endfacet
  facet normal 0 0 -1
    outer loop
      vertex 11.6713 18.9184 0
      vertex 0 40 0
      vertex 11.5 20 0
    endloop
  endfacet
  facet normal 0 0 -1
    outer loop
      vertex 14.3356 12.0448 0
      vertex 0 40 0
      vertex 11.6713 18.9184 0
    endloop
  endfacet
  facet normal 0 0 -1
    outer loop
      vertex 16.2637 11.7394 0
      vertex 15 16.5 0
      vertex 16.7394 11.2637 0
    endloop
  endfacet
  facet normal 0 0 -1
    outer loop
      vertex 16.2637 11.7394 0
      vertex 13.9184 16.6713 0
      vertex 15 16.5 0
    endloop
  endfacet
  facet normal 0 0 -1
    outer loop
      vertex 18.3287 21.0816 0
      vertex 20 40 0
      vertex 18.5 20 0
    endloop
  endfacet
  facet normal 0 0 -1
    outer loop
      vertex 20 0 0
      vertex 16.0816 16.6713 0
      vertex 17.0572 17.1684 0
    endloop
  endfacet
  facet normal 0 0 -1
    outer loop
      vertex 20 0 0
      vertex 17.0572 17.1684 0
      vertex 17.8316 17.9428 0
    endloop
  endfacet
  facet normal 0 0 -1
    outer loop
      vertex 20 0 0
      vertex 17.8316 17.9428 0
      vertex 18.3287 18.9184 0
    endloop
  endfacet
  facet normal 0 0 -1
    outer loop
      vertex 20 0 0
      vertex 18.3287 18.9184 0
      vertex 18.5 20 0
    endloop
  endfacet
  facet normal 0 0 -1
    outer loop
      vertex 20 0 0
      vertex 18.5 20 0
      vertex 20 40 0
    endloop
  endfacet
  facet normal 0 0 -1
    outer loop
      vertex 17.8316 22.0572 0
      vertex 20 40 0
      vertex 18.3287 21.0816 0
    endloop
  endfacet
  facet normal 0 0 -1
    outer loop
      vertex 17.0572 22.8316 0
      vertex 20 40 0
      vertex 17.8316 22.0572 0
    endloop
  endfacet
  facet normal 0 0 -1
    outer loop
      vertex 16.0816 23.3287 0
      vertex 12.5 30 0
      vertex 17.0572 22.8316 0
    endloop
  endfacet
  facet normal 0 0 -1
    outer loop
      vertex 13.9184 23.3287 0
      vertex 12.5 30 0
      vertex 15 23.5 0
    endloop
  endfacet
  facet normal 0 0 -1
    outer loop
      vertex 15 23.5 0
      vertex 12.5 30 0
      vertex 16.0816 23.3287 0
    endloop
  endfacet
  facet normal 0 0 -1
    outer loop
      vertex 14.3356 7.95523 0
      vertex 20 0 0
      vertex 13.7363 8.26061 0
    endloop
  endfacet
  facet normal 0 0 -1
    outer loop
      vertex 16.0816 16.6713 0
      vertex 20 0 0
      vertex 17.0448 10.6644 0
    endloop
  endfacet
  facet normal 0 0 -1
    outer loop
      vertex 16.0816 16.6713 0
      vertex 16.7394 11.2637 0
      vertex 15 16.5 0
    endloop
  endfacet
  facet normal 0 0 -1
    outer loop
      vertex 8.8 10 0
      vertex 8.5 20 0
      vertex 12.85 10 0
    endloop
  endfacet
  facet normal 0 0 -1
    outer loop
      vertex 12.9552 10.6644 0
      vertex 8.5 20 0
      vertex 13.2606 11.2637 0
    endloop
  endfacet
  facet normal 0 0 -1
    outer loop
      vertex 8.8 10 0
      vertex 12.85 10 0
      vertex 12.9552 9.33561 0
    endloop
  endfacet
  facet normal 0 0 -1
    outer loop
      vertex 8.8 10 0
      vertex 12.9552 9.33561 0
      vertex 13.2606 8.73626 0
    endloop
  endfacet
  facet normal 0 0 -1
    outer loop
      vertex 8.8 10 0
      vertex 13.2606 8.73626 0
      vertex 20 0 0
    endloop
  endfacet
  facet normal 0 0 -1
    outer loop
      vertex 13.2606 8.73626 0
      vertex 13.7363 8.26061 0
      vertex 20 0 0
    endloop
  endfacet
  facet normal 0 0 -1
    outer loop
      vertex 15.6644 7.95523 0
      vertex 20 0 0
      vertex 15 7.85 0
    endloop
  endfacet
  facet normal 0 0 -1
    outer loop
      vertex 14.3356 7.95523 0
      vertex 15 7.85 0
      vertex 20 0 0
    endloop
  endfacet
  facet normal 0 0 -1
    outer loop
      vertex 13.2606 11.2637 0
      vertex 8.5 20 0
      vertex 13.7363 11.7394 0
    endloop
  endfacet
  facet normal 0 0 -1
    outer loop
      vertex 16.2637 8.26061 0
      vertex 20 0 0
      vertex 15.6644 7.95523 0
    endloop
  endfacet
  facet normal 0 0 -1
    outer loop
      vertex 16.7394 8.73626 0
      vertex 20 0 0
      vertex 16.2637 8.26061 0
    endloop
  endfacet
  facet normal 0 0 -1
    outer loop
      vertex 17.0448 9.33561 0
      vertex 20 0 0
      vertex 16.7394 8.73626 0
    endloop
  endfacet
  facet normal 0 0 -1
    outer loop
      vertex 12.9428 22.8316 0
      vertex 12.5 30 0
      vertex 13.9184 23.3287 0
    endloop
  endfacet
  facet normal 0 0 -1
    outer loop
      vertex 15 12.15 0
      vertex 12.9428 17.1684 0
      vertex 13.9184 16.6713 0
    endloop
  endfacet
  facet normal 0 0 -1
    outer loop
      vertex 16.7394 11.2637 0
      vertex 16.0816 16.6713 0
      vertex 17.0448 10.6644 0
    endloop
  endfacet
  facet normal 0 0 -1
    outer loop
      vertex 14.3356 12.0448 0
      vertex 11.6713 18.9184 0
      vertex 12.1684 17.9428 0
    endloop
  endfacet
  facet normal 0 0 -1
    outer loop
      vertex 20 0 0
      vertex 17.15 10 0
      vertex 17.0448 10.6644 0
    endloop
  endfacet
  facet normal 0 0 -1
    outer loop
      vertex 15 12.15 0
      vertex 13.9184 16.6713 0
      vertex 15.6644 12.0448 0
    endloop
  endfacet
  facet normal 0 0 -1
    outer loop
      vertex 15.6644 12.0448 0
      vertex 13.9184 16.6713 0
      vertex 16.2637 11.7394 0
    endloop
  endfacet
  facet normal 0 0 -1
    outer loop
      vertex 17.15 10 0
      vertex 20 0 0
      vertex 17.0448 9.33561 0
    endloop
  endfacet
  facet normal 0 0 -1
    outer loop
      vertex 12.9428 17.1684 0
      vertex 15 12.15 0
      vertex 12.1684 17.9428 0
    endloop
  endfacet
  facet normal 0 0 -1
    outer loop
      vertex 13.7363 11.7394 0
      vertex 0 40 0
      vertex 14.3356 12.0448 0
    endloop
  endfacet
  facet normal 0 0 -1
    outer loop
      vertex 8.5 20 0
      vertex 0 40 0
      vertex 13.7363 11.7394 0
    endloop
  endfacet
  facet normal 0 0 -1
    outer loop
      vertex 12.85 10 0
      vertex 8.5 20 0
      vertex 12.9552 10.6644 0
    endloop
  endfacet
  facet normal 0 0 -1
    outer loop
      vertex 8.8 10 0
      vertex 20 0 0
      vertex 6.9 6.7091 0
    endloop
  endfacet
  facet normal 0 0 -1
    outer loop
      vertex 12.5 30 0
      vertex 12.9428 22.8316 0
      vertex 12.1684 22.0572 0
    endloop
  endfacet
  facet normal 0 0 -1
    outer loop
      vertex 12.5 30 0
      vertex 12.1684 22.0572 0
      vertex 11.6713 21.0816 0
    endloop
  endfacet
  facet normal 0 0 -1
    outer loop
      vertex 12.5 30 0
      vertex 11.6713 21.0816 0
      vertex 7.5 30 0
    endloop
  endfacet
  facet normal 0 1 0
    outer loop
      vertex 0 40 0
      vertex 0 40 2
      vertex 20 40 0
    endloop
  endfacet
  facet normal 0 1 0
    outer loop
      vertex 20 40 0
      vertex 0 40 2
      vertex 2.5 40 2
    endloop
  endfacet
  facet normal 0 1 0
    outer loop
      vertex 20 40 0
      vertex 2.5 40 2
      vertex 2.5 40 5
    endloop
  endfacet
  facet normal 0 1 0
    outer loop
      vertex 17.5 40 2
      vertex 2.5 40 5
      vertex 17.5 40 5
    endloop
  endfacet
  facet normal 0 1 0
    outer loop
      vertex 20 40 0
      vertex 2.5 40 5
      vertex 17.5 40 2
    endloop
  endfacet
  facet normal 0 1 0
    outer loop
      vertex 20 40 2
      vertex 20 40 0
      vertex 17.5 40 2
    endloop
  endfacet
  facet normal 0 0 1
    outer loop
      vertex 1.5 20 2
      vertex 0 40 2
      vertex 1.2 10 2
    endloop
  endfacet
  facet normal 0 0 1
    outer loop
      vertex 2.5 0 2
      vertex 2.5 7.74833 2
      vertex 1.2 10 2
    endloop
  endfacet
  facet normal 0 0 1
    outer loop
      vertex 0 0 2
      vertex 2.5 0 2
      vertex 1.2 10 2
    endloop
  endfacet
  facet normal 0 0 1
    outer loop
      vertex 2.5 12.2517 2
      vertex 2.5 18.2679 2
      vertex 1.2 10 2
    endloop
  endfacet
  facet normal 0 0 1
    outer loop
      vertex 2.5 18.2679 2
      vertex 1.5 20 2
      vertex 1.2 10 2
    endloop
  endfacet
  facet normal 0 0 1
    outer loop
      vertex 2.5 21.7321 2
      vertex 2.5 40 2
      vertex 1.5 20 2
    endloop
  endfacet
  facet normal 0 0 1
    outer loop
      vertex 2.5 40 2
      vertex 0 40 2
      vertex 1.5 20 2
    endloop
  endfacet
  facet normal 0 0 1
    outer loop
      vertex 0 40 2
      vertex 0 0 2
      vertex 1.2 10 2
    endloop
  endfacet
  facet normal -1 0 0
    outer loop
      vertex 2.5 7.74833 5
      vertex 2.5 7.74833 2
      vertex 2.5 0 5
    endloop
  endfacet
  facet normal -1 0 0
    outer loop
      vertex 2.5 0 5
      vertex 2.5 7.74833 2
      vertex 2.5 0 2
    endloop
  endfacet
  facet normal 0 0 -1
    outer loop
      vertex 2.5 30 5
      vertex 2.5 21.7321 5
      vertex 0 30 5
    endloop
  endfacet
  facet normal 0 0 -1
    outer loop
      vertex 0 30 5
      vertex 2.5 21.7321 5
      vertex 1.5 20 5
    endloop
  endfacet
  facet normal 0 0 -1
    outer loop
      vertex 1.5 20 5
      vertex 2.5 18.2679 5
      vertex 2.5 12.2517 5
    endloop
  endfacet
  facet normal 0 0 -1
    outer loop
      vertex 1.5 20 5
      vertex 2.5 12.2517 5
      vertex 0 30 5
    endloop
  endfacet
  facet normal 0 0 -1
    outer loop
      vertex 0 30 5
      vertex 2.5 12.2517 5
      vertex 1.2 10 5
    endloop
  endfacet
  facet normal 0 0 -1
    outer loop
      vertex 1.2 10 5
      vertex 2.5 7.74833 5
      vertex 2.5 0 5
    endloop
  endfacet
  facet normal 0 0 -1
    outer loop
      vertex 1.2 10 5
      vertex 2.5 0 5
      vertex 0 0 5
    endloop
  endfacet
  facet normal 0 0 -1
    outer loop
      vertex 1.2 10 5
      vertex 0 0 5
      vertex 0 30 5
    endloop
  endfacet
  facet normal -1 0 0
    outer loop
      vertex 0 0 5
      vertex 0 0 7.5
      vertex 0 30 5
    endloop
  endfacet
  facet normal -1 0 0
    outer loop
      vertex 0 30 5
      vertex 0 0 7.5
      vertex 0 25.7732 7.5
    endloop
  endfacet
  facet normal -1 0 0
    outer loop
      vertex 0 30 5
      vertex 0 25.7732 7.5
      vertex 0 30 5.05966
    endloop
  endfacet
  facet normal 0 0 1
    outer loop
      vertex 3.1 6.7091 7.5
      vertex 0 0 7.5
      vertex 20 0 7.5
    endloop
  endfacet
  facet normal 0 0 1
    outer loop
      vertex 8.5 20 7.5
      vertex 12.9552 10.6644 7.5
      vertex 13.2606 11.2637 7.5
    endloop
  endfacet
  facet normal 0 0 1
    outer loop
      vertex 6.9 6.7091 7.5
      vertex 3.1 6.7091 7.5
      vertex 20 0 7.5
    endloop
  endfacet
  facet normal 0 0 1
    outer loop
      vertex 1.2 10 7.5
      vertex 0 0 7.5
      vertex 3.1 6.7091 7.5
    endloop
  endfacet
  facet normal 0 0 1
    outer loop
      vertex 8.8 10 7.5
      vertex 6.9 6.7091 7.5
      vertex 20 0 7.5
    endloop
  endfacet
  facet normal 0 0 1
    outer loop
      vertex 0 25.7732 7.5
      vertex 0 0 7.5
      vertex 1.2 10 7.5
    endloop
  endfacet
  facet normal 0 0 1
    outer loop
      vertex 6.75 16.9689 7.5
      vertex 3.25 16.9689 7.5
      vertex 6.9 13.2909 7.5
    endloop
  endfacet
  facet normal 0 0 1
    outer loop
      vertex 6.75 16.9689 7.5
      vertex 6.9 13.2909 7.5
      vertex 20 0 7.5
    endloop
  endfacet
  facet normal 0 0 1
    outer loop
      vertex 3.25 16.9689 7.5
      vertex 3.1 13.2909 7.5
      vertex 6.9 13.2909 7.5
    endloop
  endfacet
  facet normal 0 0 1
    outer loop
      vertex 6.9 13.2909 7.5
      vertex 8.8 10 7.5
      vertex 20 0 7.5
    endloop
  endfacet
  facet normal 0 0 1
    outer loop
      vertex 1.5 20 7.5
      vertex 3.1 13.2909 7.5
      vertex 3.25 16.9689 7.5
    endloop
  endfacet
  facet normal 0 0 1
    outer loop
      vertex 8.5 20 7.5
      vertex 12.9552 9.33561 7.5
      vertex 12.85 10 7.5
    endloop
  endfacet
  facet normal 0 0 1
    outer loop
      vertex 0 25.7732 7.5
      vertex 3.1 13.2909 7.5
      vertex 1.5 20 7.5
    endloop
  endfacet
  facet normal 0 0 1
    outer loop
      vertex 14.3356 12.0448 7.5
      vertex 15 12.15 7.5
      vertex 12.1684 17.9428 7.5
    endloop
  endfacet
  facet normal 0 0 1
    outer loop
      vertex 20 25.7732 7.5
      vertex 0 25.7732 7.5
      vertex 3.25 23.0311 7.5
    endloop
  endfacet
  facet normal 0 0 1
    outer loop
      vertex 20 25.7732 7.5
      vertex 3.25 23.0311 7.5
      vertex 6.75 23.0311 7.5
    endloop
  endfacet
  facet normal 0 0 1
    outer loop
      vertex 12.1684 22.0572 7.5
      vertex 6.75 23.0311 7.5
      vertex 8.5 20 7.5
    endloop
  endfacet
  facet normal 0 0 1
    outer loop
      vertex 8.5 20 7.5
      vertex 12.85 10 7.5
      vertex 12.9552 10.6644 7.5
    endloop
  endfacet
  facet normal 0 0 1
    outer loop
      vertex 11.6713 21.0816 7.5
      vertex 12.1684 22.0572 7.5
      vertex 8.5 20 7.5
    endloop
  endfacet
  facet normal 0 0 1
    outer loop
      vertex 11.5 20 7.5
      vertex 8.5 20 7.5
      vertex 11.6713 18.9184 7.5
    endloop
  endfacet
  facet normal 0 0 1
    outer loop
      vertex 18.5 20 7.5
      vertex 18.3287 18.9184 7.5
      vertex 20 0 7.5
    endloop
  endfacet
  facet normal 0 0 1
    outer loop
      vertex 11.6713 21.0816 7.5
      vertex 8.5 20 7.5
      vertex 11.5 20 7.5
    endloop
  endfacet
  facet normal 0 0 1
    outer loop
      vertex 13.9184 23.3287 7.5
      vertex 15 23.5 7.5
      vertex 20 25.7732 7.5
    endloop
  endfacet
  facet normal 0 0 1
    outer loop
      vertex 12.9428 22.8316 7.5
      vertex 6.75 23.0311 7.5
      vertex 12.1684 22.0572 7.5
    endloop
  endfacet
  facet normal 0 0 1
    outer loop
      vertex 13.9184 23.3287 7.5
      vertex 6.75 23.0311 7.5
      vertex 12.9428 22.8316 7.5
    endloop
  endfacet
  facet normal 0 0 1
    outer loop
      vertex 20 25.7732 7.5
      vertex 6.75 23.0311 7.5
      vertex 13.9184 23.3287 7.5
    endloop
  endfacet
  facet normal 0 0 1
    outer loop
      vertex 16.0816 23.3287 7.5
      vertex 17.0572 22.8316 7.5
      vertex 20 25.7732 7.5
    endloop
  endfacet
  facet normal 0 0 1
    outer loop
      vertex 13.2606 11.2637 7.5
      vertex 13.7363 11.7394 7.5
      vertex 8.5 20 7.5
    endloop
  endfacet
  facet normal 0 0 1
    outer loop
      vertex 17.8316 17.9428 7.5
      vertex 17.0572 17.1684 7.5
      vertex 20 0 7.5
    endloop
  endfacet
  facet normal 0 0 1
    outer loop
      vertex 20 25.7732 7.5
      vertex 17.0572 22.8316 7.5
      vertex 17.8316 22.0572 7.5
    endloop
  endfacet
  facet normal 0 0 1
    outer loop
      vertex 18.3287 18.9184 7.5
      vertex 17.8316 17.9428 7.5
      vertex 20 0 7.5
    endloop
  endfacet
  facet normal 0 0 1
    outer loop
      vertex 20 25.7732 7.5
      vertex 17.8316 22.0572 7.5
      vertex 18.3287 21.0816 7.5
    endloop
  endfacet
  facet normal 0 0 1
    outer loop
      vertex 20 25.7732 7.5
      vertex 18.5 20 7.5
      vertex 20 0 7.5
    endloop
  endfacet
  facet normal 0 0 1
    outer loop
      vertex 20 25.7732 7.5
      vertex 18.3287 21.0816 7.5
      vertex 18.5 20 7.5
    endloop
  endfacet
  facet normal 0 0 1
    outer loop
      vertex 15 7.85 7.5
      vertex 14.3356 7.95523 7.5
      vertex 20 0 7.5
    endloop
  endfacet
  facet normal 0 0 1
    outer loop
      vertex 17.0572 17.1684 7.5
      vertex 16.0816 16.6713 7.5
      vertex 20 0 7.5
    endloop
  endfacet
  facet normal 0 0 1
    outer loop
      vertex 15 23.5 7.5
      vertex 16.0816 23.3287 7.5
      vertex 20 25.7732 7.5
    endloop
  endfacet
  facet normal 0 0 1
    outer loop
      vertex 15 12.15 7.5
      vertex 15.6644 12.0448 7.5
      vertex 13.9184 16.6713 7.5
    endloop
  endfacet
  facet normal 0 0 1
    outer loop
      vertex 15.6644 7.95523 7.5
      vertex 15 7.85 7.5
      vertex 20 0 7.5
    endloop
  endfacet
  facet normal 0 0 1
    outer loop
      vertex 11.6713 18.9184 7.5
      vertex 8.5 20 7.5
      vertex 13.7363 11.7394 7.5
    endloop
  endfacet
  facet normal 0 0 1
    outer loop
      vertex 14.3356 7.95523 7.5
      vertex 13.7363 8.26061 7.5
      vertex 20 0 7.5
    endloop
  endfacet
  facet normal 0 0 1
    outer loop
      vertex 11.6713 18.9184 7.5
      vertex 13.7363 11.7394 7.5
      vertex 14.3356 12.0448 7.5
    endloop
  endfacet
  facet normal 0 0 1
    outer loop
      vertex 12.9428 17.1684 7.5
      vertex 12.1684 17.9428 7.5
      vertex 15 12.15 7.5
    endloop
  endfacet
  facet normal 0 0 1
    outer loop
      vertex 16.7394 8.73626 7.5
      vertex 16.2637 8.26061 7.5
      vertex 20 0 7.5
    endloop
  endfacet
  facet normal 0 0 1
    outer loop
      vertex 15 16.5 7.5
      vertex 13.9184 16.6713 7.5
      vertex 15.6644 12.0448 7.5
    endloop
  endfacet
  facet normal 0 0 1
    outer loop
      vertex 16.2637 8.26061 7.5
      vertex 15.6644 7.95523 7.5
      vertex 20 0 7.5
    endloop
  endfacet
  facet normal 0 0 1
    outer loop
      vertex 15 16.5 7.5
      vertex 15.6644 12.0448 7.5
      vertex 16.2637 11.7394 7.5
    endloop
  endfacet
  facet normal 0 0 1
    outer loop
      vertex 16.0816 16.6713 7.5
      vertex 15 16.5 7.5
      vertex 16.7394 11.2637 7.5
    endloop
  endfacet
  facet normal 0 0 1
    outer loop
      vertex 16.0816 16.6713 7.5
      vertex 17.0448 10.6644 7.5
      vertex 20 0 7.5
    endloop
  endfacet
  facet normal 0 0 1
    outer loop
      vertex 16.0816 16.6713 7.5
      vertex 16.7394 11.2637 7.5
      vertex 17.0448 10.6644 7.5
    endloop
  endfacet
  facet normal 0 0 1
    outer loop
      vertex 17.0448 10.6644 7.5
      vertex 17.15 10 7.5
      vertex 20 0 7.5
    endloop
  endfacet
  facet normal 0 0 1
    outer loop
      vertex 17.15 10 7.5
      vertex 17.0448 9.33561 7.5
      vertex 20 0 7.5
    endloop
  endfacet
  facet normal 0 0 1
    outer loop
      vertex 17.0448 9.33561 7.5
      vertex 16.7394 8.73626 7.5
      vertex 20 0 7.5
    endloop
  endfacet
  facet normal 0 0 1
    outer loop
      vertex 16.2637 11.7394 7.5
      vertex 16.7394 11.2637 7.5
      vertex 15 16.5 7.5
    endloop
  endfacet
  facet normal 0 0 1
    outer loop
      vertex 15 12.15 7.5
      vertex 13.9184 16.6713 7.5
      vertex 12.9428 17.1684 7.5
    endloop
  endfacet
  facet normal 0 0 1
    outer loop
      vertex 13.7363 8.26061 7.5
      vertex 13.2606 8.73626 7.5
      vertex 20 0 7.5
    endloop
  endfacet
  facet normal 0 0 1
    outer loop
      vertex 14.3356 12.0448 7.5
      vertex 12.1684 17.9428 7.5
      vertex 11.6713 18.9184 7.5
    endloop
  endfacet
  facet normal 0 0 1
    outer loop
      vertex 1.2 10 7.5
      vertex 3.1 13.2909 7.5
      vertex 0 25.7732 7.5
    endloop
  endfacet
  facet normal 0 0 1
    outer loop
      vertex 13.2606 8.73626 7.5
      vertex 6.75 16.9689 7.5
      vertex 20 0 7.5
    endloop
  endfacet
  facet normal 0 0 1
    outer loop
      vertex 1.5 20 7.5
      vertex 3.25 23.0311 7.5
      vertex 0 25.7732 7.5
    endloop
  endfacet
  facet normal 0 0 1
    outer loop
      vertex 12.9552 9.33561 7.5
      vertex 6.75 16.9689 7.5
      vertex 13.2606 8.73626 7.5
    endloop
  endfacet
  facet normal 0 0 1
    outer loop
      vertex 8.5 20 7.5
      vertex 6.75 16.9689 7.5
      vertex 12.9552 9.33561 7.5
    endloop
  endfacet
  facet normal 1 0 0
    outer loop
      vertex 20 0 7.5
      vertex 20 0 5
      vertex 20 30 5
    endloop
  endfacet
  facet normal 1 0 0
    outer loop
      vertex 20 25.7732 7.5
      vertex 20 0 7.5
      vertex 20 30 5.05966
    endloop
  endfacet
  facet normal 1 0 0
    outer loop
      vertex 20 30 5.05966
      vertex 20 0 7.5
      vertex 20 30 5
    endloop
  endfacet
  facet normal 0 0 -1
    outer loop
      vertex 17.8316 17.9428 5
      vertex 20 0 5
      vertex 17.5 17.6112 5
    endloop
  endfacet
  facet normal 0 0 -1
    outer loop
      vertex 20 0 5
      vertex 18.3287 18.9184 5
      vertex 18.5 20 5
    endloop
  endfacet
  facet normal 0 0 -1
    outer loop
      vertex 20 30 5
      vertex 18.5 20 5
      vertex 17.5 30 5
    endloop
  endfacet
  facet normal 0 0 -1
    outer loop
      vertex 18.5 20 5
      vertex 18.3287 21.0816 5
      vertex 17.5 30 5
    endloop
  endfacet
  facet normal 0 0 -1
    outer loop
      vertex 17.5 30 5
      vertex 17.8316 22.0572 5
      vertex 17.5 22.3888 5
    endloop
  endfacet
  facet normal 0 0 -1
    outer loop
      vertex 18.3287 21.0816 5
      vertex 17.8316 22.0572 5
      vertex 17.5 30 5
    endloop
  endfacet
  facet normal 0 0 -1
    outer loop
      vertex 20 0 5
      vertex 18.5 20 5
      vertex 20 30 5
    endloop
  endfacet
  facet normal 0 0 -1
    outer loop
      vertex 17.8316 17.9428 5
      vertex 18.3287 18.9184 5
      vertex 20 0 5
    endloop
  endfacet
  facet normal 0 0 -1
    outer loop
      vertex 20 0 5
      vertex 17.5 0 5
      vertex 17.5 17.6112 5
    endloop
  endfacet
  facet normal 1 0 0
    outer loop
      vertex 17.5 17.6112 2
      vertex 17.5 17.6112 5
      vertex 17.5 0 5
    endloop
  endfacet
  facet normal 1 0 0
    outer loop
      vertex 17.5 0 2
      vertex 17.5 17.6112 2
      vertex 17.5 0 5
    endloop
  endfacet
  facet normal 0 0 1
    outer loop
      vertex 20 0 2
      vertex 20 40 2
      vertex 17.5 40 2
    endloop
  endfacet
  facet normal 0 0 1
    outer loop
      vertex 18.5 20 2
      vertex 20 0 2
      vertex 17.5 40 2
    endloop
  endfacet
  facet normal 0 0 1
    outer loop
      vertex 17.5 22.3888 2
      vertex 17.8316 22.0572 2
      vertex 17.5 40 2
    endloop
  endfacet
  facet normal 0 0 1
    outer loop
      vertex 17.8316 22.0572 2
      vertex 18.3287 21.0816 2
      vertex 17.5 40 2
    endloop
  endfacet
  facet normal 0 0 1
    outer loop
      vertex 18.3287 21.0816 2
      vertex 18.5 20 2
      vertex 17.5 40 2
    endloop
  endfacet
  facet normal 0 0 1
    outer loop
      vertex 17.5 17.6112 2
      vertex 20 0 2
      vertex 17.8316 17.9428 2
    endloop
  endfacet
  facet normal 0 0 1
    outer loop
      vertex 17.5 0 2
      vertex 20 0 2
      vertex 17.5 17.6112 2
    endloop
  endfacet
  facet normal 0 0 1
    outer loop
      vertex 18.5 20 2
      vertex 18.3287 18.9184 2
      vertex 20 0 2
    endloop
  endfacet
  facet normal 0 0 1
    outer loop
      vertex 18.3287 18.9184 2
      vertex 17.8316 17.9428 2
      vertex 20 0 2
    endloop
  endfacet
  facet normal 1 0 0
    outer loop
      vertex 20 0 2
      vertex 20 0 0
      vertex 20 40 0
    endloop
  endfacet
  facet normal 1 0 0
    outer loop
      vertex 20 40 2
      vertex 20 0 2
      vertex 20 40 0
    endloop
  endfacet
  facet normal 0.866025 -0.5 0
    outer loop
      vertex 2.5 12.2517 5
      vertex 3.1 13.2909 7.5
      vertex 1.2 10 7.5
    endloop
  endfacet
  facet normal 0.866025 -0.5 0
    outer loop
      vertex 2.5 12.2517 2
      vertex 1.2 10 2
      vertex 3.1 13.2909 0
    endloop
  endfacet
  facet normal 0.866025 -0.5 0
    outer loop
      vertex 3.1 13.2909 0
      vertex 3.1 13.2909 7.5
      vertex 2.5 12.2517 5
    endloop
  endfacet
  facet normal 0.866025 -0.5 0
    outer loop
      vertex 1.2 10 0
      vertex 3.1 13.2909 0
      vertex 1.2 10 2
    endloop
  endfacet
  facet normal 0.866025 -0.5 0
    outer loop
      vertex 2.5 12.2517 5
      vertex 2.5 12.2517 2
      vertex 3.1 13.2909 0
    endloop
  endfacet
  facet normal 0.866025 -0.5 0
    outer loop
      vertex 1.2 10 5
      vertex 2.5 12.2517 5
      vertex 1.2 10 7.5
    endloop
  endfacet
  facet normal 0.866025 0.5 0
    outer loop
      vertex 3.1 6.7091 7.5
      vertex 2.5 7.74833 2
      vertex 2.5 7.74833 5
    endloop
  endfacet
  facet normal 0.866025 0.5 0
    outer loop
      vertex 1.2 10 2
      vertex 2.5 7.74833 2
      vertex 3.1 6.7091 0
    endloop
  endfacet
  facet normal 0.866025 0.5 0
    outer loop
      vertex 1.2 10 5
      vertex 1.2 10 7.5
      vertex 2.5 7.74833 5
    endloop
  endfacet
  facet normal 0.866025 0.5 0
    outer loop
      vertex 1.2 10 7.5
      vertex 3.1 6.7091 7.5
      vertex 2.5 7.74833 5
    endloop
  endfacet
  facet normal 0.866025 0.5 0
    outer loop
      vertex 3.1 6.7091 7.5
      vertex 3.1 6.7091 0
      vertex 2.5 7.74833 2
    endloop
  endfacet
  facet normal 0.866025 0.5 0
    outer loop
      vertex 3.1 6.7091 0
      vertex 1.2 10 0
      vertex 1.2 10 2
    endloop
  endfacet
  facet normal 0 -1 0
    outer loop
      vertex 6.9 13.2909 0
      vertex 6.9 13.2909 7.5
      vertex 3.1 13.2909 7.5
    endloop
  endfacet
  facet normal 0 -1 0
    outer loop
      vertex 3.1 13.2909 0
      vertex 6.9 13.2909 0
      vertex 3.1 13.2909 7.5
    endloop
  endfacet
  facet normal -0.866025 -0.5 0
    outer loop
      vertex 8.8 10 7.5
      vertex 6.9 13.2909 7.5
      vertex 8.8 10 0
    endloop
  endfacet
  facet normal -0.866025 -0.5 0
    outer loop
      vertex 8.8 10 0
      vertex 6.9 13.2909 7.5
      vertex 6.9 13.2909 0
    endloop
  endfacet
  facet normal -0.866025 0.5 0
    outer loop
      vertex 8.8 10 7.5
      vertex 8.8 10 0
      vertex 6.9 6.7091 7.5
    endloop
  endfacet
  facet normal -0.866025 0.5 0
    outer loop
      vertex 6.9 6.7091 7.5
      vertex 8.8 10 0
      vertex 6.9 6.7091 0
    endloop
  endfacet
  facet normal 0 1 0
    outer loop
      vertex 6.9 6.7091 7.5
      vertex 6.9 6.7091 0
      vertex 3.1 6.7091 7.5
    endloop
  endfacet
  facet normal 0 1 0
    outer loop
      vertex 3.1 6.7091 7.5
      vertex 6.9 6.7091 0
      vertex 3.1 6.7091 0
    endloop
  endfacet
  facet normal 0.866025 -0.5 0
    outer loop
      vertex 2.5 21.7321 5
      vertex 3.25 23.0311 7.5
      vertex 1.5 20 7.5
    endloop
  endfacet
  facet normal 0.866025 -0.5 0
    outer loop
      vertex 2.5 21.7321 5
      vertex 2.5 21.7321 2
      vertex 3.25 23.0311 0
    endloop
  endfacet
  facet normal 0.866025 -0.5 0
    outer loop
      vertex 3.25 23.0311 0
      vertex 3.25 23.0311 7.5
      vertex 2.5 21.7321 5
    endloop
  endfacet
  facet normal 0.866025 -0.5 0
    outer loop
      vertex 1.5 20 2
      vertex 3.25 23.0311 0
      vertex 2.5 21.7321 2
    endloop
  endfacet
  facet normal 0.866025 -0.5 0
    outer loop
      vertex 1.5 20 0
      vertex 3.25 23.0311 0
      vertex 1.5 20 2
    endloop
  endfacet
  facet normal 0.866025 -0.5 0
    outer loop
      vertex 1.5 20 5
      vertex 2.5 21.7321 5
      vertex 1.5 20 7.5
    endloop
  endfacet
  facet normal 0.866025 0.5 0
    outer loop
      vertex 3.25 16.9689 7.5
      vertex 2.5 18.2679 2
      vertex 2.5 18.2679 5
    endloop
  endfacet
  facet normal 0.866025 0.5 0
    outer loop
      vertex 1.5 20 2
      vertex 2.5 18.2679 2
      vertex 3.25 16.9689 0
    endloop
  endfacet
  facet normal 0.866025 0.5 0
    outer loop
      vertex 1.5 20 5
      vertex 1.5 20 7.5
      vertex 2.5 18.2679 5
    endloop
  endfacet
  facet normal 0.866025 0.5 0
    outer loop
      vertex 1.5 20 7.5
      vertex 3.25 16.9689 7.5
      vertex 2.5 18.2679 5
    endloop
  endfacet
  facet normal 0.866025 0.5 0
    outer loop
      vertex 3.25 16.9689 7.5
      vertex 3.25 16.9689 0
      vertex 2.5 18.2679 2
    endloop
  endfacet
  facet normal 0.866025 0.5 0
    outer loop
      vertex 3.25 16.9689 0
      vertex 1.5 20 0
      vertex 1.5 20 2
    endloop
  endfacet
  facet normal 0 -1 0
    outer loop
      vertex 6.75 23.0311 0
      vertex 6.75 23.0311 7.5
      vertex 3.25 23.0311 7.5
    endloop
  endfacet
  facet normal 0 -1 0
    outer loop
      vertex 3.25 23.0311 0
      vertex 6.75 23.0311 0
      vertex 3.25 23.0311 7.5
    endloop
  endfacet
  facet normal -0.866025 -0.5 0
    outer loop
      vertex 8.5 20 7.5
      vertex 6.75 23.0311 7.5
      vertex 8.5 20 0
    endloop
  endfacet
  facet normal -0.866025 -0.5 0
    outer loop
      vertex 8.5 20 0
      vertex 6.75 23.0311 7.5
      vertex 6.75 23.0311 0
    endloop
  endfacet
  facet normal -0.866025 0.5 0
    outer loop
      vertex 8.5 20 7.5
      vertex 8.5 20 0
      vertex 6.75 16.9689 7.5
    endloop
  endfacet
  facet normal -0.866025 0.5 0
    outer loop
      vertex 6.75 16.9689 7.5
      vertex 8.5 20 0
      vertex 6.75 16.9689 0
    endloop
  endfacet
  facet normal 0 1 0
    outer loop
      vertex 6.75 16.9689 7.5
      vertex 6.75 16.9689 0
      vertex 3.25 16.9689 7.5
    endloop
  endfacet
  facet normal 0 1 0
    outer loop
      vertex 3.25 16.9689 7.5
      vertex 6.75 16.9689 0
      vertex 3.25 16.9689 0
    endloop
  endfacet
  facet normal 1 0 0
    outer loop
      vertex 7.5 34 0
      vertex 7.5 34 5
      vertex 7.5 30 5
    endloop
  endfacet
  facet normal 1 0 0
    outer loop
      vertex 7.5 30 0
      vertex 7.5 34 0
      vertex 7.5 30 5
    endloop
  endfacet
  facet normal 0 -1 0
    outer loop
      vertex 12.5 34 0
      vertex 12.5 34 5
      vertex 7.5 34 5
    endloop
  endfacet
  facet normal 0 -1 0
    outer loop
      vertex 7.5 34 0
      vertex 12.5 34 0
      vertex 7.5 34 5
    endloop
  endfacet
  facet normal -1 0 0
    outer loop
      vertex 12.5 34 5
      vertex 12.5 34 0
      vertex 12.5 30 5
    endloop
  endfacet
  facet normal -1 0 0
    outer loop
      vertex 12.5 30 5
      vertex 12.5 34 0
      vertex 12.5 30 0
    endloop
  endfacet
  facet normal 0 1 0
    outer loop
      vertex 7.5 30 0
      vertex 7.5 30 5
      vertex 12.5 30 0
    endloop
  endfacet
  facet normal 0 1 0
    outer loop
      vertex 12.5 30 0
      vertex 7.5 30 5
      vertex 7.5 30 5.05966
    endloop
  endfacet
  facet normal 0 1 0
    outer loop
      vertex 12.5 30 5
      vertex 7.5 30 5.05966
      vertex 12.5 30 5.05966
    endloop
  endfacet
  facet normal 0 1 0
    outer loop
      vertex 12.5 30 0
      vertex 7.5 30 5.05966
      vertex 12.5 30 5
    endloop
  endfacet
  facet normal 0.987688 -0.156434 0
    outer loop
      vertex 11.6713 21.0816 0
      vertex 11.6713 21.0816 7.5
      vertex 11.5 20 7.5
    endloop
  endfacet
  facet normal 0.987688 -0.156434 0
    outer loop
      vertex 11.5 20 0
      vertex 11.6713 21.0816 0
      vertex 11.5 20 7.5
    endloop
  endfacet
  facet normal 0.987688 0.156434 0
    outer loop
      vertex 11.5 20 7.5
      vertex 11.6713 18.9184 7.5
      vertex 11.6713 18.9184 0
    endloop
  endfacet
  facet normal 0.987688 0.156434 0
    outer loop
      vertex 11.5 20 0
      vertex 11.5 20 7.5
      vertex 11.6713 18.9184 0
    endloop
  endfacet
  facet normal 0.891006 -0.453991 0
    outer loop
      vertex 12.1684 22.0572 0
      vertex 12.1684 22.0572 7.5
      vertex 11.6713 21.0816 7.5
    endloop
  endfacet
  facet normal 0.891006 -0.453991 0
    outer loop
      vertex 11.6713 21.0816 0
      vertex 12.1684 22.0572 0
      vertex 11.6713 21.0816 7.5
    endloop
  endfacet
  facet normal 0.707107 -0.707107 0
    outer loop
      vertex 12.9428 22.8316 0
      vertex 12.9428 22.8316 7.5
      vertex 12.1684 22.0572 7.5
    endloop
  endfacet
  facet normal 0.707107 -0.707107 0
    outer loop
      vertex 12.1684 22.0572 0
      vertex 12.9428 22.8316 0
      vertex 12.1684 22.0572 7.5
    endloop
  endfacet
  facet normal 0.453991 -0.891006 0
    outer loop
      vertex 13.9184 23.3287 0
      vertex 13.9184 23.3287 7.5
      vertex 12.9428 22.8316 7.5
    endloop
  endfacet
  facet normal 0.453991 -0.891006 0
    outer loop
      vertex 12.9428 22.8316 0
      vertex 13.9184 23.3287 0
      vertex 12.9428 22.8316 7.5
    endloop
  endfacet
  facet normal 0.156434 -0.987688 0
    outer loop
      vertex 15 23.5 0
      vertex 15 23.5 7.5
      vertex 13.9184 23.3287 7.5
    endloop
  endfacet
  facet normal 0.156434 -0.987688 0
    outer loop
      vertex 13.9184 23.3287 0
      vertex 15 23.5 0
      vertex 13.9184 23.3287 7.5
    endloop
  endfacet
  facet normal -0.156434 -0.987688 0
    outer loop
      vertex 16.0816 23.3287 0
      vertex 16.0816 23.3287 7.5
      vertex 15 23.5 7.5
    endloop
  endfacet
  facet normal -0.156434 -0.987688 0
    outer loop
      vertex 15 23.5 0
      vertex 16.0816 23.3287 0
      vertex 15 23.5 7.5
    endloop
  endfacet
  facet normal -0.453991 -0.891006 0
    outer loop
      vertex 17.0572 22.8316 0
      vertex 17.0572 22.8316 7.5
      vertex 16.0816 23.3287 7.5
    endloop
  endfacet
  facet normal -0.453991 -0.891006 0
    outer loop
      vertex 16.0816 23.3287 0
      vertex 17.0572 22.8316 0
      vertex 16.0816 23.3287 7.5
    endloop
  endfacet
  facet normal -0.707107 -0.707107 0
    outer loop
      vertex 17.5 22.3888 5
      vertex 17.0572 22.8316 7.5
      vertex 17.5 22.3888 2
    endloop
  endfacet
  facet normal -0.707107 -0.707107 0
    outer loop
      vertex 17.8316 22.0572 0
      vertex 17.8316 22.0572 2
      vertex 17.5 22.3888 2
    endloop
  endfacet
  facet normal -0.707107 -0.707107 0
    outer loop
      vertex 17.0572 22.8316 0
      vertex 17.8316 22.0572 0
      vertex 17.5 22.3888 2
    endloop
  endfacet
  facet normal -0.707107 -0.707107 0
    outer loop
      vertex 17.8316 22.0572 5
      vertex 17.8316 22.0572 7.5
      vertex 17.5 22.3888 5
    endloop
  endfacet
  facet normal -0.707107 -0.707107 0
    outer loop
      vertex 17.8316 22.0572 7.5
      vertex 17.0572 22.8316 7.5
      vertex 17.5 22.3888 5
    endloop
  endfacet
  facet normal -0.707107 -0.707107 0
    outer loop
      vertex 17.0572 22.8316 7.5
      vertex 17.0572 22.8316 0
      vertex 17.5 22.3888 2
    endloop
  endfacet
  facet normal -0.891006 -0.453991 0
    outer loop
      vertex 18.3287 21.0816 2
      vertex 17.8316 22.0572 2
      vertex 18.3287 21.0816 0
    endloop
  endfacet
  facet normal -0.891006 -0.453991 0
    outer loop
      vertex 18.3287 21.0816 0
      vertex 17.8316 22.0572 2
      vertex 17.8316 22.0572 0
    endloop
  endfacet
  facet normal -0.987688 -0.156434 0
    outer loop
      vertex 18.5 20 2
      vertex 18.3287 21.0816 2
      vertex 18.5 20 0
    endloop
  endfacet
  facet normal -0.987688 -0.156434 0
    outer loop
      vertex 18.5 20 0
      vertex 18.3287 21.0816 2
      vertex 18.3287 21.0816 0
    endloop
  endfacet
  facet normal -0.987688 0.156434 0
    outer loop
      vertex 18.5 20 2
      vertex 18.5 20 0
      vertex 18.3287 18.9184 2
    endloop
  endfacet
  facet normal -0.987688 0.156434 0
    outer loop
      vertex 18.3287 18.9184 2
      vertex 18.5 20 0
      vertex 18.3287 18.9184 0
    endloop
  endfacet
  facet normal -0.891006 0.453991 0
    outer loop
      vertex 18.3287 18.9184 2
      vertex 18.3287 18.9184 0
      vertex 17.8316 17.9428 2
    endloop
  endfacet
  facet normal -0.891006 0.453991 0
    outer loop
      vertex 17.8316 17.9428 2
      vertex 18.3287 18.9184 0
      vertex 17.8316 17.9428 0
    endloop
  endfacet
  facet normal -0.707107 0.707107 0
    outer loop
      vertex 17.8316 17.9428 7.5
      vertex 17.8316 17.9428 5
      vertex 17.0572 17.1684 7.5
    endloop
  endfacet
  facet normal -0.707107 0.707107 0
    outer loop
      vertex 17.0572 17.1684 7.5
      vertex 17.8316 17.9428 5
      vertex 17.5 17.6112 5
    endloop
  endfacet
  facet normal -0.707107 0.707107 0
    outer loop
      vertex 17.0572 17.1684 7.5
      vertex 17.5 17.6112 5
      vertex 17.5 17.6112 2
    endloop
  endfacet
  facet normal -0.707107 0.707107 0
    outer loop
      vertex 17.5 17.6112 2
      vertex 17.8316 17.9428 2
      vertex 17.8316 17.9428 0
    endloop
  endfacet
  facet normal -0.707107 0.707107 0
    outer loop
      vertex 17.5 17.6112 2
      vertex 17.8316 17.9428 0
      vertex 17.0572 17.1684 0
    endloop
  endfacet
  facet normal -0.707107 0.707107 0
    outer loop
      vertex 17.5 17.6112 2
      vertex 17.0572 17.1684 0
      vertex 17.0572 17.1684 7.5
    endloop
  endfacet
  facet normal -0.453991 0.891006 0
    outer loop
      vertex 17.0572 17.1684 7.5
      vertex 17.0572 17.1684 0
      vertex 16.0816 16.6713 7.5
    endloop
  endfacet
  facet normal -0.453991 0.891006 0
    outer loop
      vertex 16.0816 16.6713 7.5
      vertex 17.0572 17.1684 0
      vertex 16.0816 16.6713 0
    endloop
  endfacet
  facet normal -0.156434 0.987688 0
    outer loop
      vertex 16.0816 16.6713 7.5
      vertex 16.0816 16.6713 0
      vertex 15 16.5 7.5
    endloop
  endfacet
  facet normal -0.156434 0.987688 0
    outer loop
      vertex 15 16.5 7.5
      vertex 16.0816 16.6713 0
      vertex 15 16.5 0
    endloop
  endfacet
  facet normal 0.156434 0.987688 0
    outer loop
      vertex 15 16.5 7.5
      vertex 15 16.5 0
      vertex 13.9184 16.6713 7.5
    endloop
  endfacet
  facet normal 0.156434 0.987688 0
    outer loop
      vertex 13.9184 16.6713 7.5
      vertex 15 16.5 0
      vertex 13.9184 16.6713 0
    endloop
  endfacet
  facet normal 0.453991 0.891006 0
    outer loop
      vertex 13.9184 16.6713 7.5
      vertex 13.9184 16.6713 0
      vertex 12.9428 17.1684 7.5
    endloop
  endfacet
  facet normal 0.453991 0.891006 0
    outer loop
      vertex 12.9428 17.1684 7.5
      vertex 13.9184 16.6713 0
      vertex 12.9428 17.1684 0
    endloop
  endfacet
  facet normal 0.707107 0.707107 0
    outer loop
      vertex 12.9428 17.1684 7.5
      vertex 12.9428 17.1684 0
      vertex 12.1684 17.9428 7.5
    endloop
  endfacet
  facet normal 0.707107 0.707107 0
    outer loop
      vertex 12.1684 17.9428 7.5
      vertex 12.9428 17.1684 0
      vertex 12.1684 17.9428 0
    endloop
  endfacet
  facet normal 0.891006 0.453991 0
    outer loop
      vertex 11.6713 18.9184 7.5
      vertex 12.1684 17.9428 7.5
      vertex 12.1684 17.9428 0
    endloop
  endfacet
  facet normal 0.891006 0.453991 0
    outer loop
      vertex 11.6713 18.9184 0
      vertex 11.6713 18.9184 7.5
      vertex 12.1684 17.9428 0
    endloop
  endfacet
  facet normal 0.987688 -0.156434 0
    outer loop
      vertex 12.9552 10.6644 0
      vertex 12.9552 10.6644 7.5
      vertex 12.85 10 7.5
    endloop
  endfacet
  facet normal 0.987688 -0.156434 0
    outer loop
      vertex 12.85 10 0
      vertex 12.9552 10.6644 0
      vertex 12.85 10 7.5
    endloop
  endfacet
  facet normal 0.987688 0.156434 0
    outer loop
      vertex 12.85 10 7.5
      vertex 12.9552 9.33561 7.5
      vertex 12.9552 9.33561 0
    endloop
  endfacet
  facet normal 0.987688 0.156434 0
    outer loop
      vertex 12.85 10 0
      vertex 12.85 10 7.5
      vertex 12.9552 9.33561 0
    endloop
  endfacet
  facet normal 0.891006 -0.453991 0
    outer loop
      vertex 13.2606 11.2637 0
      vertex 13.2606 11.2637 7.5
      vertex 12.9552 10.6644 7.5
    endloop
  endfacet
  facet normal 0.891006 -0.453991 0
    outer loop
      vertex 12.9552 10.6644 0
      vertex 13.2606 11.2637 0
      vertex 12.9552 10.6644 7.5
    endloop
  endfacet
  facet normal 0.707107 -0.707107 0
    outer loop
      vertex 13.7363 11.7394 0
      vertex 13.7363 11.7394 7.5
      vertex 13.2606 11.2637 7.5
    endloop
  endfacet
  facet normal 0.707107 -0.707107 0
    outer loop
      vertex 13.2606 11.2637 0
      vertex 13.7363 11.7394 0
      vertex 13.2606 11.2637 7.5
    endloop
  endfacet
  facet normal 0.453991 -0.891006 0
    outer loop
      vertex 14.3356 12.0448 0
      vertex 14.3356 12.0448 7.5
      vertex 13.7363 11.7394 7.5
    endloop
  endfacet
  facet normal 0.453991 -0.891006 0
    outer loop
      vertex 13.7363 11.7394 0
      vertex 14.3356 12.0448 0
      vertex 13.7363 11.7394 7.5
    endloop
  endfacet
  facet normal 0.156434 -0.987688 0
    outer loop
      vertex 15 12.15 0
      vertex 15 12.15 7.5
      vertex 14.3356 12.0448 7.5
    endloop
  endfacet
  facet normal 0.156434 -0.987688 0
    outer loop
      vertex 14.3356 12.0448 0
      vertex 15 12.15 0
      vertex 14.3356 12.0448 7.5
    endloop
  endfacet
  facet normal -0.156434 -0.987688 0
    outer loop
      vertex 15.6644 12.0448 0
      vertex 15.6644 12.0448 7.5
      vertex 15 12.15 7.5
    endloop
  endfacet
  facet normal -0.156434 -0.987688 0
    outer loop
      vertex 15 12.15 0
      vertex 15.6644 12.0448 0
      vertex 15 12.15 7.5
    endloop
  endfacet
  facet normal -0.453991 -0.891006 0
    outer loop
      vertex 16.2637 11.7394 0
      vertex 16.2637 11.7394 7.5
      vertex 15.6644 12.0448 7.5
    endloop
  endfacet
  facet normal -0.453991 -0.891006 0
    outer loop
      vertex 15.6644 12.0448 0
      vertex 16.2637 11.7394 0
      vertex 15.6644 12.0448 7.5
    endloop
  endfacet
  facet normal -0.707107 -0.707107 0
    outer loop
      vertex 16.7394 11.2637 0
      vertex 16.7394 11.2637 7.5
      vertex 16.2637 11.7394 7.5
    endloop
  endfacet
  facet normal -0.707107 -0.707107 0
    outer loop
      vertex 16.2637 11.7394 0
      vertex 16.7394 11.2637 0
      vertex 16.2637 11.7394 7.5
    endloop
  endfacet
  facet normal -0.891006 -0.453991 0
    outer loop
      vertex 17.0448 10.6644 7.5
      vertex 16.7394 11.2637 7.5
      vertex 17.0448 10.6644 0
    endloop
  endfacet
  facet normal -0.891006 -0.453991 0
    outer loop
      vertex 17.0448 10.6644 0
      vertex 16.7394 11.2637 7.5
      vertex 16.7394 11.2637 0
    endloop
  endfacet
  facet normal -0.987688 -0.156434 0
    outer loop
      vertex 17.15 10 7.5
      vertex 17.0448 10.6644 7.5
      vertex 17.15 10 0
    endloop
  endfacet
  facet normal -0.987688 -0.156434 0
    outer loop
      vertex 17.15 10 0
      vertex 17.0448 10.6644 7.5
      vertex 17.0448 10.6644 0
    endloop
  endfacet
  facet normal -0.987688 0.156434 0
    outer loop
      vertex 17.15 10 7.5
      vertex 17.15 10 0
      vertex 17.0448 9.33561 7.5
    endloop
  endfacet
  facet normal -0.987688 0.156434 0
    outer loop
      vertex 17.0448 9.33561 7.5
      vertex 17.15 10 0
      vertex 17.0448 9.33561 0
    endloop
  endfacet
  facet normal -0.891006 0.453991 0
    outer loop
      vertex 17.0448 9.33561 7.5
      vertex 17.0448 9.33561 0
      vertex 16.7394 8.73626 7.5
    endloop
  endfacet
  facet normal -0.891006 0.453991 0
    outer loop
      vertex 16.7394 8.73626 7.5
      vertex 17.0448 9.33561 0
      vertex 16.7394 8.73626 0
    endloop
  endfacet
  facet normal -0.707107 0.707107 0
    outer loop
      vertex 16.7394 8.73626 7.5
      vertex 16.7394 8.73626 0
      vertex 16.2637 8.26061 7.5
    endloop
  endfacet
  facet normal -0.707107 0.707107 0
    outer loop
      vertex 16.2637 8.26061 7.5
      vertex 16.7394 8.73626 0
      vertex 16.2637 8.26061 0
    endloop
  endfacet
  facet normal -0.453991 0.891006 0
    outer loop
      vertex 16.2637 8.26061 7.5
      vertex 16.2637 8.26061 0
      vertex 15.6644 7.95523 7.5
    endloop
  endfacet
  facet normal -0.453991 0.891006 0
    outer loop
      vertex 15.6644 7.95523 7.5
      vertex 16.2637 8.26061 0
      vertex 15.6644 7.95523 0
    endloop
  endfacet
  facet normal -0.156434 0.987688 0
    outer loop
      vertex 15.6644 7.95523 7.5
      vertex 15.6644 7.95523 0
      vertex 15 7.85 7.5
    endloop
  endfacet
  facet normal -0.156434 0.987688 0
    outer loop
      vertex 15 7.85 7.5
      vertex 15.6644 7.95523 0
      vertex 15 7.85 0
    endloop
  endfacet
  facet normal 0.156434 0.987688 0
    outer loop
      vertex 15 7.85 7.5
      vertex 15 7.85 0
      vertex 14.3356 7.95523 7.5
    endloop
  endfacet
  facet normal 0.156434 0.987688 0
    outer loop
      vertex 14.3356 7.95523 7.5
      vertex 15 7.85 0
      vertex 14.3356 7.95523 0
    endloop
  endfacet
  facet normal 0.453991 0.891006 0
    outer loop
      vertex 14.3356 7.95523 7.5
      vertex 14.3356 7.95523 0
      vertex 13.7363 8.26061 7.5
    endloop
  endfacet
  facet normal 0.453991 0.891006 0
    outer loop
      vertex 13.7363 8.26061 7.5
      vertex 14.3356 7.95523 0
      vertex 13.7363 8.26061 0
    endloop
  endfacet
  facet normal 0.707107 0.707107 0
    outer loop
      vertex 13.7363 8.26061 7.5
      vertex 13.7363 8.26061 0
      vertex 13.2606 8.73626 7.5
    endloop
  endfacet
  facet normal 0.707107 0.707107 0
    outer loop
      vertex 13.2606 8.73626 7.5
      vertex 13.7363 8.26061 0
      vertex 13.2606 8.73626 0
    endloop
  endfacet
  facet normal 0.891006 0.453991 0
    outer loop
      vertex 12.9552 9.33561 7.5
      vertex 13.2606 8.73626 7.5
      vertex 13.2606 8.73626 0
    endloop
  endfacet
  facet normal 0.891006 0.453991 0
    outer loop
      vertex 12.9552 9.33561 0
      vertex 12.9552 9.33561 7.5
      vertex 13.2606 8.73626 0
    endloop
  endfacet
  facet normal 1 0 0
    outer loop
      vertex 17.5 40 2
      vertex 17.5 40 5
      vertex 17.5 30 5
    endloop
  endfacet
  facet normal 1 0 0
    outer loop
      vertex 17.5 22.3888 2
      vertex 17.5 40 2
      vertex 17.5 22.3888 5
    endloop
  endfacet
  facet normal 1 0 0
    outer loop
      vertex 17.5 22.3888 5
      vertex 17.5 40 2
      vertex 17.5 30 5
    endloop
  endfacet
  facet normal 0 0 1
    outer loop
      vertex 2.5 40 5
      vertex 2.5 30 5
      vertex 7.5 30 5
    endloop
  endfacet
  facet normal 0 0 1
    outer loop
      vertex 12.5 34 5
      vertex 2.5 40 5
      vertex 7.5 34 5
    endloop
  endfacet
  facet normal 0 0 1
    outer loop
      vertex 7.5 34 5
      vertex 2.5 40 5
      vertex 7.5 30 5
    endloop
  endfacet
  facet normal 0 0 1
    outer loop
      vertex 17.5 40 5
      vertex 2.5 40 5
      vertex 12.5 34 5
    endloop
  endfacet
  facet normal 0 0 1
    outer loop
      vertex 17.5 30 5
      vertex 12.5 34 5
      vertex 12.5 30 5
    endloop
  endfacet
  facet normal 0 0 1
    outer loop
      vertex 17.5 40 5
      vertex 12.5 34 5
      vertex 17.5 30 5
    endloop
  endfacet
  facet normal -1 0 0
    outer loop
      vertex 2.5 40 5
      vertex 2.5 40 2
      vertex 2.5 30 5
    endloop
  endfacet
  facet normal -1 0 0
    outer loop
      vertex 2.5 30 5
      vertex 2.5 40 2
      vertex 2.5 21.7321 5
    endloop
  endfacet
  facet normal -1 0 0
    outer loop
      vertex 2.5 21.7321 5
      vertex 2.5 40 2
      vertex 2.5 21.7321 2
    endloop
  endfacet
  facet normal -1 0 0
    outer loop
      vertex 2.5 18.2679 5
      vertex 2.5 18.2679 2
      vertex 2.5 12.2517 5
    endloop
  endfacet
  facet normal -1 0 0
    outer loop
      vertex 2.5 12.2517 5
      vertex 2.5 18.2679 2
      vertex 2.5 12.2517 2
    endloop
  endfacet
  facet normal 0 1 0
    outer loop
      vertex 0 30 5
      vertex 0 30 5.05966
      vertex 2.5 30 5
    endloop
  endfacet
  facet normal 0 1 0
    outer loop
      vertex 2.5 30 5
      vertex 0 30 5.05966
      vertex 7.5 30 5.05966
    endloop
  endfacet
  facet normal 0 1 0
    outer loop
      vertex 2.5 30 5
      vertex 7.5 30 5.05966
      vertex 7.5 30 5
    endloop
  endfacet
  facet normal -1.92296e-016 0.5 0.866025
    outer loop
      vertex 20 25.7732 7.5
      vertex 20 30 5.05966
      vertex 12.5 30 5.05966
    endloop
  endfacet
  facet normal -1.92296e-016 0.5 0.866025
    outer loop
      vertex 0 30 5.05966
      vertex 20 25.7732 7.5
      vertex 7.5 30 5.05966
    endloop
  endfacet
  facet normal -1.92296e-016 0.5 0.866025
    outer loop
      vertex 7.5 30 5.05966
      vertex 20 25.7732 7.5
      vertex 12.5 30 5.05966
    endloop
  endfacet
  facet normal -1.92296e-016 0.5 0.866025
    outer loop
      vertex 0 25.7732 7.5
      vertex 20 25.7732 7.5
      vertex 0 30 5.05966
    endloop
  endfacet
  facet normal -0.891006 0.453991 0
    outer loop
      vertex 18.3287 18.9184 7.5
      vertex 18.3287 18.9184 5
      vertex 17.8316 17.9428 7.5
    endloop
  endfacet
  facet normal -0.891006 0.453991 0
    outer loop
      vertex 17.8316 17.9428 7.5
      vertex 18.3287 18.9184 5
      vertex 17.8316 17.9428 5
    endloop
  endfacet
  facet normal -0.987688 0.156434 0
    outer loop
      vertex 18.5 20 7.5
      vertex 18.5 20 5
      vertex 18.3287 18.9184 7.5
    endloop
  endfacet
  facet normal -0.987688 0.156434 0
    outer loop
      vertex 18.3287 18.9184 7.5
      vertex 18.5 20 5
      vertex 18.3287 18.9184 5
    endloop
  endfacet
  facet normal -0.987688 -0.156434 0
    outer loop
      vertex 18.5 20 7.5
      vertex 18.3287 21.0816 7.5
      vertex 18.5 20 5
    endloop
  endfacet
  facet normal -0.987688 -0.156434 0
    outer loop
      vertex 18.5 20 5
      vertex 18.3287 21.0816 7.5
      vertex 18.3287 21.0816 5
    endloop
  endfacet
  facet normal -0.891006 -0.453991 0
    outer loop
      vertex 18.3287 21.0816 7.5
      vertex 17.8316 22.0572 7.5
      vertex 18.3287 21.0816 5
    endloop
  endfacet
  facet normal -0.891006 -0.453991 0
    outer loop
      vertex 18.3287 21.0816 5
      vertex 17.8316 22.0572 7.5
      vertex 17.8316 22.0572 5
    endloop
  endfacet
  facet normal 0 1 0
    outer loop
      vertex 12.5 30 5
      vertex 12.5 30 5.05966
      vertex 17.5 30 5
    endloop
  endfacet
  facet normal 0 1 0
    outer loop
      vertex 17.5 30 5
      vertex 12.5 30 5.05966
      vertex 20 30 5.05966
    endloop
  endfacet
  facet normal 0 1 0
    outer loop
      vertex 17.5 30 5
      vertex 20 30 5.05966
      vertex 20 30 5
    endloop
  endfacet
endsolid OpenSCAD_Model
